<svg id="visual" viewBox="0 0 960 200" width="960" height="200" xmlns="http://www.w3.org/2000/svg" xmlns:xlink="http://www.w3.org/1999/xlink" version="1.1"><rect x="0" y="0" width="960" height="200" fill="#f7f7f7"></rect><path d="M0 168L14.5 168.2C29 168.3 58 168.7 87.2 168.7C116.3 168.7 145.7 168.3 174.8 167.8C204 167.3 233 166.7 262 165.2C291 163.7 320 161.3 349 162.3C378 163.3 407 167.7 436.2 167C465.3 166.3 494.7 160.7 523.8 160.2C553 159.7 582 164.3 611 164.7C640 165 669 161 698 161.3C727 161.7 756 166.3 785.2 166C814.3 165.7 843.7 160.3 872.8 157.5C902 154.7 931 154.3 945.5 154.2L960 154L960 201L945.5 201C931 201 902 201 872.8 201C843.7 201 814.3 201 785.2 201C756 201 727 201 698 201C669 201 640 201 611 201C582 201 553 201 523.8 201C494.7 201 465.3 201 436.2 201C407 201 378 201 349 201C320 201 291 201 262 201C233 201 204 201 174.8 201C145.7 201 116.3 201 87.2 201C58 201 29 201 14.5 201L0 201Z" fill="#ffe1a3"></path><path d="M0 184L14.5 183.3C29 182.7 58 181.3 87.2 180C116.3 178.7 145.7 177.3 174.8 177.7C204 178 233 180 262 181.2C291 182.3 320 182.7 349 181.5C378 180.3 407 177.7 436.2 177.5C465.3 177.3 494.7 179.7 523.8 181.7C553 183.7 582 185.3 611 183.7C640 182 669 177 698 176.2C727 175.3 756 178.7 785.2 180.2C814.3 181.7 843.7 181.3 872.8 179.5C902 177.7 931 174.3 945.5 172.7L960 171L960 201L945.5 201C931 201 902 201 872.8 201C843.7 201 814.3 201 785.2 201C756 201 727 201 698 201C669 201 640 201 611 201C582 201 553 201 523.8 201C494.7 201 465.3 201 436.2 201C407 201 378 201 349 201C320 201 291 201 262 201C233 201 204 201 174.8 201C145.7 201 116.3 201 87.2 201C58 201 29 201 14.5 201L0 201Z" fill="#fffbf3"></path></svg>