<svg width="93" height="92" viewBox="0 0 93 92" fill="none" xmlns="http://www.w3.org/2000/svg">
<path d="M62.2029 77.1465L68.9477 85.7488C76.6686 81.4575 83.0166 75.0009 87.1702 67.1984L79.7741 53.2127L90.3796 59.5716C91.7598 55.2088 92.5151 50.5663 92.5151 45.7483C92.5151 43.7652 92.3718 41.8146 92.1307 39.8965L77.6127 27.9457L89.4748 29.3437C87.3393 23.791 84.149 18.7649 80.1517 14.493L66.5514 11.4761L74.7287 9.56448C66.9813 3.57612 57.2676 0 46.7143 0C36.1609 0 26.4474 3.57612 18.7 9.56448L26.8771 11.4761L13.2769 14.493C9.27943 18.7584 6.08935 23.791 3.95394 29.3437L15.8159 27.9457L1.29769 39.8965C1.05029 41.8146 0.913574 43.7652 0.913574 45.7483C0.913574 50.5663 1.66227 55.2088 3.04899 59.5716L13.6544 53.2127L6.25862 67.1984C10.4123 75.0009 16.7599 81.4575 24.4813 85.7488L31.226 77.1465V88.8115C36.0633 90.5475 41.2847 91.5033 46.7209 91.5033C52.157 91.5033 57.3783 90.5536 62.2158 88.8115V77.1465H62.2029Z" fill="#FFC248"/>
<path d="M79.7808 53.2193L83.1987 55.2675L77.6127 50.6705L89.4748 52.0685C87.3393 46.5157 84.149 41.4897 80.1517 37.2178L66.5514 34.2009L74.7287 32.2893C66.9813 26.3009 57.2676 22.7248 46.7144 22.7248C36.161 22.7248 26.4475 26.3009 18.7001 32.2893L26.8772 34.2009L13.2769 37.2178C9.2795 41.4832 6.0894 46.5157 3.95398 52.0685L15.816 50.6705L10.23 55.2675L13.648 53.2193L6.25215 67.2053C8.04254 70.5604 10.2365 73.6681 12.7691 76.4642L13.6415 75.9372L13.1467 76.8739C16.4214 80.3913 20.2365 83.4018 24.4748 85.7557L31.2196 77.1534V88.8179C36.0568 90.5538 41.2782 91.5096 46.7144 91.5096C52.1506 91.5096 57.3722 90.5605 62.2091 88.8179V77.1534L68.9538 85.7557C73.1922 83.4018 77.0075 80.3913 80.2821 76.8739L79.7876 75.9372L80.6597 76.4642C83.192 73.6681 85.3927 70.5666 87.1764 67.2053L79.7808 53.2193Z" fill="#E99E09"/>
<path d="M57.3069 67.4848C56.2 68.6875 54.8784 70.1311 53.5503 71.5746C49.9109 75.5342 43.661 75.5342 40.0281 71.5746L36.1154 67.3158C34.657 65.7292 35.1388 63.1676 37.0919 62.2702C41.0112 60.4624 47.8341 58.7203 56.226 62.3937C58.2376 63.2715 58.7911 65.8656 57.3069 67.4848Z" fill="#FFC248"/>
<path d="M71.5647 40.9822L66.929 32.5296C66.7992 32.289 66.8054 31.9899 66.9487 31.7558L70.0997 26.6517C70.4706 26.047 69.8912 25.2993 69.2466 25.5529L64.3968 27.51C63.8039 27.7506 63.2312 27.1134 63.4914 26.5087L65.1521 22.679C65.4122 22.0678 64.8329 21.4371 64.2405 21.6842L57.3328 24.5646C56.7729 24.7987 56.213 24.246 56.3953 23.6478L57.6778 19.415C57.8863 18.7323 57.1372 18.1666 56.5841 18.5892L47.1245 25.7349C46.877 25.9235 46.5385 25.9235 46.2911 25.7349L36.8315 18.5892C36.2781 18.1731 35.5294 18.7323 35.7377 19.415L37.0203 23.6478C37.2026 24.246 36.6362 24.7921 36.0828 24.5646L29.1753 21.6842C28.5828 21.4371 28.0034 22.0743 28.2638 22.679L29.924 26.5087C30.1844 27.1134 29.6115 27.7506 29.019 27.51L24.1688 25.5529C23.5242 25.2928 22.9448 26.047 23.3159 26.6517L26.4669 31.7558C26.6101 31.9899 26.6166 32.289 26.4864 32.5296L21.8445 40.9822C21.6622 41.3203 21.7534 41.7429 22.0594 41.964L33.1075 49.8965C33.3614 50.0786 33.4786 50.4166 33.3875 50.7288L29.4031 63.0759C29.325 63.3363 29.3966 63.6226 29.5919 63.8173L30.933 64.9421C34.5724 67.9981 39.8133 68.2192 43.7 65.482C45.3797 64.2983 46.7143 63.3425 46.7143 63.3425C46.7143 63.3425 48.0489 64.2983 49.7286 65.482C53.6089 68.2125 58.8563 67.9919 62.4889 64.9421L63.8303 63.8173C64.0191 63.6226 64.0905 63.3363 64.0191 63.0759L60.0347 50.7288C59.9437 50.4166 60.0544 50.0851 60.3146 49.8965L71.363 41.964C71.6558 41.7429 71.7468 41.3138 71.5647 40.9822Z" fill="white"/>
<path d="M51.9682 57.0687C53.2117 56.8869 53.6674 55.3391 52.7169 54.5133C51.1545 53.1479 48.5242 52.0751 44.7157 52.8033C42.8927 53.1544 41.5776 53.9867 40.6661 54.8189C39.7417 55.6707 40.2365 57.2051 41.4865 57.355L44.2013 57.6799C44.7417 57.745 45.2039 58.1025 45.3992 58.6099L45.9657 60.0793C46.2717 60.879 47.4044 60.8661 47.6974 60.0664L48.3094 58.3888C48.4917 57.8814 48.9409 57.5172 49.4747 57.4391L51.9682 57.0687Z" fill="#171314"/>
<path d="M42.144 46.6978L40.2625 41.9968C39.8719 41.028 38.9995 40.3323 37.9643 40.1697L30.0867 38.9213C29.3836 38.8108 29.0646 39.7666 29.6896 40.0982L32.5672 41.6392C32.5672 41.6392 33.4591 46.9058 39.0972 45.1243L41.0828 47.348C41.5581 47.8812 42.4109 47.3545 42.144 46.6978Z" fill="#171314"/>
<path d="M51.2651 46.6978L53.1467 41.9968C53.5373 41.028 54.4097 40.3323 55.4449 40.1697L63.3224 38.9213C64.0254 38.8108 64.3446 39.7666 63.7197 40.0982L60.8418 41.6392C60.8418 41.6392 59.95 46.9058 54.312 45.1243L52.3264 47.348C51.8511 47.8812 51.0047 47.3545 51.2651 46.6978Z" fill="#171314"/>
</svg>
